<?xml version="1.0" encoding="UTF-8"?>
<svg width="752pt" height="752pt" version="1.1" viewBox="0 0 752 752" xmlns="http://www.w3.org/2000/svg">
<style type="text/css">
	.st_color{fill:#39ca86;}
	</style>
 <path class="st_color" d="m228.86 327.02h14.207v-50.809c0-62.59 60.125-113.32 134.32-113.32 74.176 0 134.32 50.73 134.32 113.32v50.789h11.445c12.531 0 22.75 10.262 22.75 22.77v216.57c0 12.512-10.242 22.75-22.75 22.75l-294.29 0.003906c-12.531 0-22.77-10.262-22.77-22.75v-216.57c0-12.512 10.238-22.754 22.77-22.754zm238.79 0v-50.809c0-37.078-40.414-67.148-90.238-67.148-49.844 0-90.258 30.074-90.258 67.148v50.812z" fill-rule="evenodd"/>
</svg>
